<svg id="Layer_1" data-name="Layer 1" xmlns="http://www.w3.org/2000/svg" xmlns:xlink="http://www.w3.org/1999/xlink" viewBox="0 0 800 800">
  <defs>
    <style>
      .cls-1 {
        fill: none;
        stroke: #fff;
        stroke-miterlimit: 10;
        stroke-width: 20px;
      }

      .cls-2 {
        fill: #fff;
      }

      .cls-3 {
        fill: url(#linear-gradient);
      }

      .cls-4 {
        fill: #0a33ff;
      }

      .cls-5 {
        fill: url(#linear-gradient-2);
      }
    </style>
    <linearGradient id="linear-gradient" x1="529.2097" y1="10419.6113" x2="340.2516" y2="9918.9613" gradientTransform="matrix(1, 0, 0, -1, 0, 10570)" gradientUnits="userSpaceOnUse">
      <stop offset="0" stop-color="#ffd60a"/>
      <stop offset="1" stop-color="#f5be09"/>
    </linearGradient>
    <linearGradient id="linear-gradient-2" x1="422.0563" y1="10367.7912" x2="314.9248" y2="10100.7718" gradientTransform="matrix(1, 0, 0, -1, 0, 10570)" gradientUnits="userSpaceOnUse">
      <stop offset="0" stop-color="#051a80"/>
      <stop offset="1" stop-color="#0a33ff"/>
    </linearGradient>
  </defs>
  <polygon class="cls-1" points="13650 9550 4650 9550 4650 7000 -2300 7000 -2300 -1700 13650 -1700 13650 9550"/>
  <rect class="cls-2" width="800" height="800" rx="150"/>
  <g>
    <path class="cls-3" d="M375.7808,172.0015A35.2486,35.2486,0,0,1,408.5088,150h226.206c24.94,0,41.99,25.0085,32.73,47.9985L494.2193,628a35.2524,35.2524,0,0,1-32.7285,22H235.2838c-24.9375,0-41.99-25.01-32.728-48Z"/>
    <path class="cls-4" d="M280,450A150,150,0,1,0,130,300,150,150,0,0,0,280,450Z"/>
    <path class="cls-5" d="M430.0018,300.0005a150,150,0,0,1-150,150,151.7979,151.7979,0,0,1-15.876-.83L371.9618,181.487A149.7448,149.7448,0,0,1,430.0018,300.0005Z"/>
  </g>
</svg>
