<svg id="Layer_1" data-name="Layer 1" xmlns="http://www.w3.org/2000/svg" xmlns:xlink="http://www.w3.org/1999/xlink" viewBox="0 0 1625 350">
  <defs>
    <style>
      .cls-1 {
        fill: none;
        stroke: #fff;
        stroke-miterlimit: 10;
        stroke-width: 20px;
      }

      .cls-2, .cls-3 {
        fill: #fff;
      }

      .cls-2 {
        fill-rule: evenodd;
      }

      .cls-4 {
        fill: url(#linear-gradient);
      }

      .cls-5 {
        fill: #0a33ff;
      }

      .cls-6 {
        fill: url(#linear-gradient-2);
      }
    </style>
    <linearGradient id="linear-gradient" x1="1506.5282" y1="-3495.7951" x2="1423.8607" y2="-3714.8301" gradientTransform="matrix(1, 0, 0, -1, 0, -3430)" gradientUnits="userSpaceOnUse">
      <stop offset="0" stop-color="#ffd60a"/>
      <stop offset="1" stop-color="#f5be09"/>
    </linearGradient>
    <linearGradient id="linear-gradient-2" x1="1459.6491" y1="-3518.4663" x2="1412.7792" y2="-3635.2873" gradientTransform="matrix(1, 0, 0, -1, 0, -3430)" gradientUnits="userSpaceOnUse">
      <stop offset="0" stop-color="#051a80"/>
      <stop offset="1" stop-color="#0a33ff"/>
    </linearGradient>
  </defs>
  <polygon class="cls-1" points="2025 2550 -6975 2550 -6975 0 -13925 0 -13925 -8700 2025 -8700 2025 2550"/>
  <g>
    <g>
      <path class="cls-2" d="M300,0a25,25,0,0,1,25,25V150a25,25,0,0,0,25,25h75a25,25,0,0,0,25-25V125a25,25,0,0,1,50,0v25a74.9994,74.9994,0,0,1-75,75H350a74.9994,74.9994,0,0,1-75-75V25A25,25,0,0,1,300,0Z"/>
      <path class="cls-2" d="M350,275a25,25,0,0,1,25-25h75a25,25,0,0,1,25,25v25a25,25,0,0,1-50,0H375A25,25,0,0,1,350,275Z"/>
      <path class="cls-2" d="M225,0a25,25,0,0,1,25,25V199.6432C250,254.8725,205.218,300,149.99,300S50,254.8725,50,199.6432V150a25,25,0,0,1,50,0v49.6432c0,27.6143,22.3752,50.3561,49.9895,50.3561S200,227.2575,200,199.6432V25A25,25,0,0,1,225,0Z"/>
      <path class="cls-2" d="M1150.0025,75a25.0267,25.0267,0,1,0-17.6725-7.33A24.9938,24.9938,0,0,0,1150.0025,75Z"/>
      <path class="cls-2" d="M625.0025,75A25.0267,25.0267,0,1,0,607.33,67.67,24.9938,24.9938,0,0,0,625.0025,75Z"/>
      <path class="cls-2" d="M1150,100a25,25,0,0,0-25,25v90.625c0,13.1548-3.7,21.8985-7.8925,26.889A21.0264,21.0264,0,0,1,1100,250a25,25,0,0,0,0,50,70.9509,70.9509,0,0,0,55.3925-25.3275C1168.7,258.83,1175,237.8868,1175,215.625V125a25,25,0,0,0-25-25Z"/>
      <path class="cls-2" d="M1075,125a25,25,0,0,0-50,0v90.625c0,13.1548-3.7,21.8985-7.8925,26.889A21.0264,21.0264,0,0,1,1000,250a25,25,0,0,0,0,50,70.9509,70.9509,0,0,0,55.3925-25.3275C1068.7,258.83,1075,237.8868,1075,215.625Z"/>
      <path class="cls-2" d="M925,250H850a25,25,0,0,0,0,50h75a25,25,0,0,0,0-50Z"/>
      <path class="cls-2" d="M975,125a25,25,0,0,0-50,0v27.5c0,12.152-9.4775,22.5-25,22.5H750c-15.5225,0-25-10.348-25-22.5V125a25,25,0,0,0-50,0v75a50,50,0,0,1-100,0V125a25,25,0,0,0-50,0v75a100.0094,100.0094,0,0,0,197.9475,20.2393A79.1518,79.1518,0,0,0,750,225H900c39.705,0,75-29.4235,75-72.5Z"/>
    </g>
    <g>
      <rect class="cls-3" x="1275" width="350" height="350" rx="65.625"/>
      <g>
        <path class="cls-4" d="M1439.4051,75.2505a15.4184,15.4184,0,0,1,14.3174-9.6255h98.965a15.3259,15.3259,0,0,1,14.32,20.9995L1491.22,274.75a15.4194,15.4194,0,0,1-14.3174,9.625h-98.965a15.3258,15.3258,0,0,1-14.32-21Z"/>
        <path class="cls-5" d="M1397.5,196.875a65.625,65.625,0,1,0-65.625-65.625A65.6258,65.6258,0,0,0,1397.5,196.875Z"/>
        <path class="cls-6" d="M1463.125,131.2505a65.6259,65.6259,0,0,1-65.625,65.625,66.4051,66.4051,0,0,1-6.945-.3633l47.1775-117.1115A65.5164,65.5164,0,0,1,1463.125,131.2505Z"/>
      </g>
    </g>
  </g>
</svg>
