<svg id="Layer_1" data-name="Layer 1" xmlns="http://www.w3.org/2000/svg" xmlns:xlink="http://www.w3.org/1999/xlink" viewBox="0 0 1775 550">
  <defs>
    <style>
      .cls-1 {
        fill: none;
        stroke: #fff;
        stroke-miterlimit: 10;
        stroke-width: 20px;
      }

      .cls-2 {
        fill: #19191a;
      }

      .cls-3 {
        fill: #fff;
        fill-rule: evenodd;
      }

      .cls-4 {
        fill: url(#linear-gradient);
      }

      .cls-5 {
        fill: #0a33ff;
      }

      .cls-6 {
        fill: url(#linear-gradient-2);
      }
    </style>
    <linearGradient id="linear-gradient" x1="1564.6051" y1="-4980.1944" x2="1470.1252" y2="-5230.5194" gradientTransform="matrix(1, 0, 0, -1, 0, -4830)" gradientUnits="userSpaceOnUse">
      <stop offset="0" stop-color="#ffd60a"/>
      <stop offset="1" stop-color="#f5be09"/>
    </linearGradient>
    <linearGradient id="linear-gradient-2" x1="1511.0289" y1="-5006.1047" x2="1457.4614" y2="-5139.6139" gradientTransform="matrix(1, 0, 0, -1, 0, -4830)" gradientUnits="userSpaceOnUse">
      <stop offset="0" stop-color="#051a80"/>
      <stop offset="1" stop-color="#0a33ff"/>
    </linearGradient>
  </defs>
  <polygon class="cls-1" points="2175 1850 -6825 1850 -6825 -700 -13775 -700 -13775 -9400 2175 -9400 2175 1850"/>
  <g>
    <rect class="cls-2" width="1775" height="550" rx="100"/>
    <g>
      <path class="cls-3" d="M400,100a25,25,0,0,1,25,25V250a25,25,0,0,0,25,25h75a25,25,0,0,0,25-25V225a25,25,0,0,1,50,0v25a74.9985,74.9985,0,0,1-75,75H450a74.9985,74.9985,0,0,1-75-75V125A25,25,0,0,1,400,100Z"/>
      <path class="cls-3" d="M450,375a25,25,0,0,1,25-25h75a25,25,0,0,1,25,25v25a25,25,0,0,1-50,0H475A25,25,0,0,1,450,375Z"/>
      <path class="cls-3" d="M325,100a25,25,0,0,1,25,25V299.6425C350,354.8725,305.2175,400,249.99,400S150,354.8725,150,299.6425V250a25,25,0,0,1,50,0v49.6425C200,327.2575,222.3753,350,249.99,350S300,327.2575,300,299.6425V125A25,25,0,0,1,325,100Z"/>
      <path class="cls-3" d="M1250.0025,175a25.0266,25.0266,0,1,0-17.6725-7.33A24.9938,24.9938,0,0,0,1250.0025,175Z"/>
      <path class="cls-3" d="M725.0025,175a25.0266,25.0266,0,1,0-17.6725-7.33A24.9938,24.9938,0,0,0,725.0025,175Z"/>
      <path class="cls-3" d="M1250,200a25,25,0,0,0-25,25v90.625c0,13.155-3.7,21.8975-7.8925,26.89A21.0334,21.0334,0,0,1,1200,350a25,25,0,0,0,0,50,70.9509,70.9509,0,0,0,55.3925-25.3275C1268.7,358.83,1275,337.8875,1275,315.625V225a25,25,0,0,0-25-25Z"/>
      <path class="cls-3" d="M1175,225a25,25,0,0,0-50,0v90.625c0,13.155-3.7,21.8975-7.8925,26.89A21.0334,21.0334,0,0,1,1100,350a25,25,0,0,0,0,50,70.9509,70.9509,0,0,0,55.3925-25.3275C1168.7,358.83,1175,337.8875,1175,315.625Z"/>
      <path class="cls-3" d="M1025,350H950a25,25,0,0,0,0,50h75a25,25,0,0,0,0-50Z"/>
      <path class="cls-3" d="M1075,225a25,25,0,0,0-50,0v27.5c0,12.1525-9.4775,22.5-25,22.5H850c-15.5225,0-25-10.3475-25-22.5V225a25,25,0,0,0-50,0v75a50,50,0,0,1-100,0V225a25,25,0,0,0-50,0v75a100.0095,100.0095,0,0,0,197.9475,20.24A79.18,79.18,0,0,0,850,325h150c39.705,0,75-29.4225,75-72.5Z"/>
    </g>
    <g>
      <path class="cls-4" d="M1487.89,161.0007A17.6258,17.6258,0,0,1,1504.2551,150h113.1024a17.5138,17.5138,0,0,1,16.365,23.9993L1547.11,389a17.6274,17.6274,0,0,1-16.3651,11H1417.6425a17.5144,17.5144,0,0,1-16.365-24Z"/>
      <path class="cls-5" d="M1440,300a75,75,0,1,0-75-75A74.9986,74.9986,0,0,0,1440,300Z"/>
      <path class="cls-6" d="M1515,225a75.0555,75.0555,0,0,1-82.9375,74.5848L1485.98,165.7435A74.8673,74.8673,0,0,1,1515,225Z"/>
    </g>
  </g>
</svg>
