<svg id="Layer_1" data-name="Layer 1" xmlns="http://www.w3.org/2000/svg" xmlns:xlink="http://www.w3.org/1999/xlink" viewBox="0 0 1400 1850">
  <defs>
    <style>
      .cls-1 {
        fill: none;
        stroke: #fff;
        stroke-miterlimit: 10;
        stroke-width: 20px;
      }

      .cls-2 {
        fill: url(#linear-gradient);
      }

      .cls-3 {
        fill: #0a33ff;
      }

      .cls-4 {
        fill: url(#linear-gradient-2);
      }

      .cls-5 {
        fill: #fff;
        fill-rule: evenodd;
      }
    </style>
    <linearGradient id="linear-gradient" x1="958.4189" y1="869.2229" x2="580.5039" y2="-132.077" gradientTransform="matrix(1, 0, 0, -1, 0, 1070)" gradientUnits="userSpaceOnUse">
      <stop offset="0" stop-color="#ffd60a"/>
      <stop offset="1" stop-color="#f5be09"/>
    </linearGradient>
    <linearGradient id="linear-gradient-2" x1="744.1145" y1="765.5823" x2="529.8495" y2="231.5423" gradientTransform="matrix(1, 0, 0, -1, 0, 1070)" gradientUnits="userSpaceOnUse">
      <stop offset="0" stop-color="#051a80"/>
      <stop offset="1" stop-color="#0a33ff"/>
    </linearGradient>
  </defs>
  <polygon class="cls-1" points="10800 4800 1800 4800 1800 2250 -5150 2250 -5150 -6450 10800 -6450 10800 4800"/>
  <g>
    <g>
      <path class="cls-2" d="M651.5625,244.0025A70.4938,70.4938,0,0,1,717.0175,200h452.415c49.875,0,83.98,50.0175,65.455,95.9975l-346.45,860A70.4954,70.4954,0,0,1,822.9825,1200H370.5675c-49.875,0-83.98-50.0175-65.455-95.9975Z"/>
      <path class="cls-3" d="M460,800c165.685,0,300-134.315,300-300S625.685,200,460,200,160,334.315,160,500,294.315,800,460,800Z"/>
      <path class="cls-4" d="M760.005,500c0,165.6875-134.315,300-300,300a303.4476,303.4476,0,0,1-31.7525-1.66L643.925,262.9725A299.4949,299.4949,0,0,1,760.005,500Z"/>
    </g>
    <g>
      <path class="cls-5" d="M387.5,1500a25,25,0,0,1,25,25v125a25,25,0,0,0,25,25h75a25,25,0,0,0,25-25v-25a25,25,0,0,1,50,0v25a74.9986,74.9986,0,0,1-75,75h-75a74.9986,74.9986,0,0,1-75-75V1525A25,25,0,0,1,387.5,1500Z"/>
      <path class="cls-5" d="M437.5,1775a25,25,0,0,1,25-25h75a25,25,0,0,1,25,25v25a25,25,0,0,1-50,0h-50A25,25,0,0,1,437.5,1775Z"/>
      <path class="cls-5" d="M312.5,1500a25,25,0,0,1,25,25v174.6425C337.5,1754.8724,292.7175,1800,237.49,1800S137.5,1754.8724,137.5,1699.6425V1650a25,25,0,0,1,50,0v49.6425c0,27.615,22.3753,50.3575,49.9895,50.3575S287.5,1727.2575,287.5,1699.6425V1525A25,25,0,0,1,312.5,1500Z"/>
      <path class="cls-5" d="M1237.5025,1575a25.0262,25.0262,0,1,0-17.6725-7.33A24.9881,24.9881,0,0,0,1237.5025,1575Z"/>
      <path class="cls-5" d="M712.5025,1575a25.0262,25.0262,0,1,0-17.6725-7.33A24.9881,24.9881,0,0,0,712.5025,1575Z"/>
      <path class="cls-5" d="M1237.5,1600a25.0006,25.0006,0,0,0-25,25v90.625c0,13.1551-3.7,21.8974-7.8925,26.89A21.0334,21.0334,0,0,1,1187.5,1750a25,25,0,0,0,0,50,70.9509,70.9509,0,0,0,55.3925-25.3275C1256.2,1758.83,1262.5,1737.8876,1262.5,1715.625V1625a25.0006,25.0006,0,0,0-25-25Z"/>
      <path class="cls-5" d="M1162.5,1625a25,25,0,0,0-50,0v90.625c0,13.1551-3.7,21.8974-7.8925,26.89A21.0334,21.0334,0,0,1,1087.5,1750a25,25,0,0,0,0,50,70.9509,70.9509,0,0,0,55.3925-25.3275C1156.2,1758.83,1162.5,1737.8876,1162.5,1715.625Z"/>
      <path class="cls-5" d="M1012.5,1750h-75a25,25,0,0,0,0,50h75a25,25,0,0,0,0-50Z"/>
      <path class="cls-5" d="M1062.5,1625a25,25,0,0,0-50,0v27.5c0,12.1526-9.4775,22.5-25,22.5h-150c-15.5225,0-25-10.3474-25-22.5V1625a25,25,0,0,0-50,0v75a50,50,0,0,1-100,0v-75a25,25,0,0,0-50,0v75a100.0095,100.0095,0,0,0,197.9475,20.24A79.1823,79.1823,0,0,0,837.5,1725h150c39.705,0,75-29.4225,75-72.5Z"/>
    </g>
  </g>
</svg>
